<svg width="312" height="41" viewBox="0 0 312 41" fill="none" xmlns="http://www.w3.org/2000/svg">
<rect width="312" height="41" rx="20" fill="#EFEFEF"/>
<rect width="150" height="41" rx="20" fill="#9DD129"/>
<path d="M63.2617 13.7373C64.8965 13.7373 66.165 14.168 67.0674 15.0293C67.9697 15.8906 68.4707 16.8691 68.5703 17.9648H66.8652C66.6719 17.1328 66.2852 16.4736 65.7051 15.9873C65.1309 15.501 64.3223 15.2578 63.2793 15.2578C62.0078 15.2578 60.9795 15.7061 60.1943 16.6025C59.415 17.4932 59.0254 18.8613 59.0254 20.707C59.0254 22.2188 59.377 23.4463 60.0801 24.3896C60.7891 25.3271 61.8438 25.7959 63.2441 25.7959C64.5332 25.7959 65.5146 25.3008 66.1885 24.3105C66.5459 23.7891 66.8125 23.1035 66.9883 22.2539H68.6934C68.541 23.6133 68.0371 24.7529 67.1816 25.6729C66.1562 26.7803 64.7734 27.334 63.0332 27.334C61.5332 27.334 60.2734 26.8799 59.2539 25.9717C57.9121 24.7705 57.2412 22.916 57.2412 20.4082C57.2412 18.5039 57.7451 16.9424 58.7529 15.7236C59.8428 14.3994 61.3457 13.7373 63.2617 13.7373ZM70.6621 17.5869H72.165V19.2129C72.2881 18.8965 72.5898 18.5127 73.0703 18.0615C73.5508 17.6045 74.1045 17.376 74.7314 17.376C74.7607 17.376 74.8105 17.3789 74.8809 17.3848C74.9512 17.3906 75.0713 17.4023 75.2412 17.4199V19.0898C75.1475 19.0723 75.0596 19.0605 74.9775 19.0547C74.9014 19.0488 74.8164 19.0459 74.7227 19.0459C73.9258 19.0459 73.3135 19.3037 72.8857 19.8193C72.458 20.3291 72.2441 20.918 72.2441 21.5859V27H70.6621V17.5869ZM77.8252 24.4951C77.8252 24.9521 77.9922 25.3125 78.3262 25.5762C78.6602 25.8398 79.0557 25.9717 79.5127 25.9717C80.0693 25.9717 80.6084 25.8428 81.1299 25.585C82.0088 25.1572 82.4482 24.457 82.4482 23.4844V22.21C82.2549 22.333 82.0059 22.4355 81.7012 22.5176C81.3965 22.5996 81.0977 22.6582 80.8047 22.6934L79.8467 22.8164C79.2725 22.8926 78.8418 23.0127 78.5547 23.1768C78.0684 23.4521 77.8252 23.8916 77.8252 24.4951ZM81.6572 21.2959C82.0205 21.249 82.2637 21.0967 82.3867 20.8389C82.457 20.6982 82.4922 20.4961 82.4922 20.2324C82.4922 19.6934 82.2988 19.3037 81.9121 19.0635C81.5312 18.8174 80.9834 18.6943 80.2686 18.6943C79.4424 18.6943 78.8564 18.917 78.5107 19.3623C78.3174 19.6084 78.1914 19.9746 78.1328 20.4609H76.6562C76.6855 19.3008 77.0605 18.4951 77.7812 18.0439C78.5078 17.5869 79.3486 17.3584 80.3037 17.3584C81.4111 17.3584 82.3105 17.5693 83.002 17.9912C83.6875 18.4131 84.0303 19.0693 84.0303 19.96V25.3828C84.0303 25.5469 84.0625 25.6787 84.127 25.7783C84.1973 25.8779 84.3408 25.9277 84.5576 25.9277C84.6279 25.9277 84.707 25.9248 84.7949 25.9189C84.8828 25.9072 84.9766 25.8926 85.0762 25.875V27.0439C84.8301 27.1143 84.6426 27.1582 84.5137 27.1758C84.3848 27.1934 84.209 27.2021 83.9863 27.2021C83.4414 27.2021 83.0459 27.0088 82.7998 26.6221C82.6709 26.417 82.5801 26.127 82.5273 25.752C82.2051 26.1738 81.7422 26.54 81.1387 26.8506C80.5352 27.1611 79.8701 27.3164 79.1436 27.3164C78.2705 27.3164 77.5557 27.0527 76.999 26.5254C76.4482 25.9922 76.1729 25.3271 76.1729 24.5303C76.1729 23.6572 76.4453 22.9805 76.9902 22.5C77.5352 22.0195 78.25 21.7236 79.1348 21.6123L81.6572 21.2959ZM90.6045 25.9365C91.3428 25.9365 91.9551 25.6289 92.4414 25.0137C92.9336 24.3926 93.1797 23.4668 93.1797 22.2363C93.1797 21.4863 93.0713 20.8418 92.8545 20.3027C92.4443 19.2656 91.6943 18.7471 90.6045 18.7471C89.5088 18.7471 88.7588 19.2949 88.3545 20.3906C88.1377 20.9766 88.0293 21.7207 88.0293 22.623C88.0293 23.3496 88.1377 23.9678 88.3545 24.4775C88.7646 25.4502 89.5146 25.9365 90.6045 25.9365ZM86.5088 17.6309H88.0469V18.8789C88.3633 18.4512 88.709 18.1201 89.084 17.8857C89.6172 17.5342 90.2441 17.3584 90.9648 17.3584C92.0312 17.3584 92.9365 17.7686 93.6807 18.5889C94.4248 19.4033 94.7969 20.5693 94.7969 22.0869C94.7969 24.1377 94.2607 25.6025 93.1885 26.4814C92.5088 27.0381 91.7178 27.3164 90.8154 27.3164C90.1064 27.3164 89.5117 27.1611 89.0312 26.8506C88.75 26.6748 88.4365 26.373 88.0908 25.9453V30.7529H86.5088V17.6309ZM97.8643 24.4951C97.8643 24.9521 98.0312 25.3125 98.3652 25.5762C98.6992 25.8398 99.0947 25.9717 99.5518 25.9717C100.108 25.9717 100.647 25.8428 101.169 25.585C102.048 25.1572 102.487 24.457 102.487 23.4844V22.21C102.294 22.333 102.045 22.4355 101.74 22.5176C101.436 22.5996 101.137 22.6582 100.844 22.6934L99.8857 22.8164C99.3115 22.8926 98.8809 23.0127 98.5938 23.1768C98.1074 23.4521 97.8643 23.8916 97.8643 24.4951ZM101.696 21.2959C102.06 21.249 102.303 21.0967 102.426 20.8389C102.496 20.6982 102.531 20.4961 102.531 20.2324C102.531 19.6934 102.338 19.3037 101.951 19.0635C101.57 18.8174 101.022 18.6943 100.308 18.6943C99.4814 18.6943 98.8955 18.917 98.5498 19.3623C98.3564 19.6084 98.2305 19.9746 98.1719 20.4609H96.6953C96.7246 19.3008 97.0996 18.4951 97.8203 18.0439C98.5469 17.5869 99.3877 17.3584 100.343 17.3584C101.45 17.3584 102.35 17.5693 103.041 17.9912C103.727 18.4131 104.069 19.0693 104.069 19.96V25.3828C104.069 25.5469 104.102 25.6787 104.166 25.7783C104.236 25.8779 104.38 25.9277 104.597 25.9277C104.667 25.9277 104.746 25.9248 104.834 25.9189C104.922 25.9072 105.016 25.8926 105.115 25.875V27.0439C104.869 27.1143 104.682 27.1582 104.553 27.1758C104.424 27.1934 104.248 27.2021 104.025 27.2021C103.48 27.2021 103.085 27.0088 102.839 26.6221C102.71 26.417 102.619 26.127 102.566 25.752C102.244 26.1738 101.781 26.54 101.178 26.8506C100.574 27.1611 99.9092 27.3164 99.1826 27.3164C98.3096 27.3164 97.5947 27.0527 97.0381 26.5254C96.4873 25.9922 96.2119 25.3271 96.2119 24.5303C96.2119 23.6572 96.4844 22.9805 97.0293 22.5C97.5742 22.0195 98.2891 21.7236 99.1738 21.6123L101.696 21.2959ZM108.253 17.5869V23.8359C108.253 24.3164 108.329 24.709 108.481 25.0137C108.763 25.5762 109.287 25.8574 110.055 25.8574C111.156 25.8574 111.906 25.3652 112.305 24.3809C112.521 23.8535 112.63 23.1299 112.63 22.21V17.5869H114.212V27H112.718L112.735 25.6113C112.53 25.9688 112.275 26.2705 111.971 26.5166C111.367 27.0088 110.635 27.2549 109.773 27.2549C108.432 27.2549 107.518 26.8066 107.031 25.9102C106.768 25.4297 106.636 24.7881 106.636 23.9854V17.5869H108.253ZM117.692 22.4033C117.692 23.4111 117.906 24.2549 118.334 24.9346C118.762 25.6143 119.447 25.9541 120.391 25.9541C121.123 25.9541 121.724 25.6406 122.192 25.0137C122.667 24.3809 122.904 23.4756 122.904 22.2979C122.904 21.1084 122.661 20.2295 122.175 19.6611C121.688 19.0869 121.088 18.7998 120.373 18.7998C119.576 18.7998 118.929 19.1045 118.431 19.7139C117.938 20.3232 117.692 21.2197 117.692 22.4033ZM120.074 17.4199C120.795 17.4199 121.398 17.5723 121.885 17.877C122.166 18.0527 122.485 18.3604 122.843 18.7998V14.0449H124.363V27H122.939V25.6904C122.57 26.2705 122.134 26.6895 121.63 26.9473C121.126 27.2051 120.549 27.334 119.898 27.334C118.85 27.334 117.941 26.8945 117.174 26.0156C116.406 25.1309 116.022 23.9561 116.022 22.4912C116.022 21.1201 116.371 19.9336 117.068 18.9316C117.771 17.9238 118.773 17.4199 120.074 17.4199Z" fill="white"/>
<path d="M212.39 13.7549C213.603 13.7549 214.651 13.9893 215.536 14.458C216.819 15.1318 217.604 16.3125 217.892 18H216.16C215.949 17.0566 215.513 16.3711 214.851 15.9434C214.188 15.5098 213.354 15.293 212.346 15.293C211.15 15.293 210.143 15.7412 209.322 16.6377C208.508 17.5342 208.101 18.8701 208.101 20.6455C208.101 22.1807 208.438 23.4316 209.111 24.3984C209.785 25.3594 210.884 25.8398 212.407 25.8398C213.573 25.8398 214.537 25.5029 215.299 24.8291C216.066 24.1494 216.459 23.0537 216.477 21.542H212.434V20.0918H218.103V27H216.978L216.556 25.3389C215.964 25.9893 215.439 26.4404 214.982 26.6924C214.215 27.126 213.239 27.3428 212.056 27.3428C210.526 27.3428 209.211 26.8477 208.109 25.8574C206.908 24.6152 206.308 22.9102 206.308 20.7422C206.308 18.5801 206.894 16.8604 208.065 15.583C209.179 14.3643 210.62 13.7549 212.39 13.7549ZM220.651 17.5869H222.154V19.2129C222.277 18.8965 222.579 18.5127 223.06 18.0615C223.54 17.6045 224.094 17.376 224.721 17.376C224.75 17.376 224.8 17.3789 224.87 17.3848C224.94 17.3906 225.061 17.4023 225.23 17.4199V19.0898C225.137 19.0723 225.049 19.0605 224.967 19.0547C224.891 19.0488 224.806 19.0459 224.712 19.0459C223.915 19.0459 223.303 19.3037 222.875 19.8193C222.447 20.3291 222.233 20.918 222.233 21.5859V27H220.651V17.5869ZM230.521 17.376C231.189 17.376 231.837 17.5342 232.464 17.8506C233.091 18.1611 233.568 18.5654 233.896 19.0635C234.213 19.5381 234.424 20.0918 234.529 20.7246C234.623 21.1582 234.67 21.8496 234.67 22.7988H227.771C227.8 23.7539 228.025 24.5215 228.447 25.1016C228.869 25.6758 229.522 25.9629 230.407 25.9629C231.233 25.9629 231.893 25.6904 232.385 25.1455C232.666 24.8291 232.865 24.4629 232.982 24.0469H234.538C234.497 24.3926 234.359 24.7793 234.125 25.207C233.896 25.6289 233.639 25.9746 233.352 26.2441C232.871 26.7129 232.276 27.0293 231.567 27.1934C231.187 27.2871 230.756 27.334 230.275 27.334C229.104 27.334 228.11 26.9092 227.296 26.0596C226.481 25.2041 226.074 24.0088 226.074 22.4736C226.074 20.9619 226.484 19.7344 227.305 18.791C228.125 17.8477 229.197 17.376 230.521 17.376ZM233.044 21.542C232.979 20.8564 232.83 20.3086 232.596 19.8984C232.162 19.1367 231.438 18.7559 230.425 18.7559C229.698 18.7559 229.089 19.0195 228.597 19.5469C228.104 20.0684 227.844 20.7334 227.814 21.542H233.044ZM236.621 17.5869H238.124V18.9229C238.569 18.3721 239.041 17.9766 239.539 17.7363C240.037 17.4961 240.591 17.376 241.2 17.376C242.536 17.376 243.438 17.8418 243.907 18.7734C244.165 19.2832 244.294 20.0127 244.294 20.9619V27H242.686V21.0674C242.686 20.4932 242.601 20.0303 242.431 19.6787C242.149 19.0928 241.64 18.7998 240.901 18.7998C240.526 18.7998 240.219 18.8379 239.979 18.9141C239.545 19.043 239.164 19.3008 238.836 19.6875C238.572 19.998 238.399 20.3203 238.317 20.6543C238.241 20.9824 238.203 21.4541 238.203 22.0693V27H236.621V17.5869ZM250.376 25.9805C251.425 25.9805 252.143 25.585 252.529 24.7939C252.922 23.9971 253.118 23.1123 253.118 22.1396C253.118 21.2607 252.978 20.5459 252.696 19.9951C252.251 19.1279 251.483 18.6943 250.394 18.6943C249.427 18.6943 248.724 19.0635 248.284 19.8018C247.845 20.54 247.625 21.4307 247.625 22.4736C247.625 23.4756 247.845 24.3105 248.284 24.9785C248.724 25.6465 249.421 25.9805 250.376 25.9805ZM250.438 17.3145C251.65 17.3145 252.676 17.7188 253.514 18.5273C254.352 19.3359 254.771 20.5254 254.771 22.0957C254.771 23.6133 254.401 24.8672 253.663 25.8574C252.925 26.8477 251.779 27.3428 250.227 27.3428C248.932 27.3428 247.903 26.9062 247.142 26.0332C246.38 25.1543 245.999 23.9766 245.999 22.5C245.999 20.918 246.4 19.6582 247.203 18.7207C248.006 17.7832 249.084 17.3145 250.438 17.3145ZM258.242 17.5869V23.8359C258.242 24.3164 258.318 24.709 258.471 25.0137C258.752 25.5762 259.276 25.8574 260.044 25.8574C261.146 25.8574 261.896 25.3652 262.294 24.3809C262.511 23.8535 262.619 23.1299 262.619 22.21V17.5869H264.201V27H262.707L262.725 25.6113C262.52 25.9688 262.265 26.2705 261.96 26.5166C261.356 27.0088 260.624 27.2549 259.763 27.2549C258.421 27.2549 257.507 26.8066 257.021 25.9102C256.757 25.4297 256.625 24.7881 256.625 23.9854V17.5869H258.242ZM266.68 17.6309H268.288V27H266.68V17.6309ZM266.68 14.0889H268.288V15.8818H266.68V14.0889ZM270.731 14.0889H272.313V27H270.731V14.0889ZM274.739 14.0889H276.321V27H274.739V14.0889ZM282.623 17.376C283.291 17.376 283.938 17.5342 284.565 17.8506C285.192 18.1611 285.67 18.5654 285.998 19.0635C286.314 19.5381 286.525 20.0918 286.631 20.7246C286.725 21.1582 286.771 21.8496 286.771 22.7988H279.872C279.901 23.7539 280.127 24.5215 280.549 25.1016C280.971 25.6758 281.624 25.9629 282.509 25.9629C283.335 25.9629 283.994 25.6904 284.486 25.1455C284.768 24.8291 284.967 24.4629 285.084 24.0469H286.64C286.599 24.3926 286.461 24.7793 286.227 25.207C285.998 25.6289 285.74 25.9746 285.453 26.2441C284.973 26.7129 284.378 27.0293 283.669 27.1934C283.288 27.2871 282.857 27.334 282.377 27.334C281.205 27.334 280.212 26.9092 279.397 26.0596C278.583 25.2041 278.176 24.0088 278.176 22.4736C278.176 20.9619 278.586 19.7344 279.406 18.791C280.227 17.8477 281.299 17.376 282.623 17.376ZM285.146 21.542C285.081 20.8564 284.932 20.3086 284.697 19.8984C284.264 19.1367 283.54 18.7559 282.526 18.7559C281.8 18.7559 281.19 19.0195 280.698 19.5469C280.206 20.0684 279.945 20.7334 279.916 21.542H285.146Z" fill="black"/>
<path d="M188.796 10C187.556 10 186.553 11.2825 186.553 12.8651C186.553 13.8168 186.924 14.7091 187.547 15.2407C187.817 19.095 187.32 22.4698 184.96 22.8401C182.056 23.1344 181.428 19.6029 180.878 16.2423C181.308 15.4971 181.322 14.4623 180.907 13.5225C180.261 12.061 178.803 11.2759 177.647 11.77C176.493 12.2637 176.08 13.8452 176.725 15.3072C177.181 16.3372 178.065 17.0682 178.996 17.1868C180.632 19.9209 182.461 24.4207 181.457 25.7402C180.902 26.4617 179.879 26.2339 178.774 25.5504C178.953 24.7767 178.557 23.908 177.77 23.3337C176.673 22.5315 175.174 22.5505 174.422 23.3717C173.669 24.1928 173.951 25.5077 175.049 26.3098C175.907 26.9316 177.044 27.074 177.869 26.6611C181.144 28.2227 183.749 31.384 186.34 30.9615C190.017 30.3634 190.032 25.2988 193.496 23.8463C194.157 24.2783 195.113 24.2403 195.894 23.7467C196.917 23.0964 197.298 21.886 196.748 21.0458C196.198 20.2009 194.92 20.0443 193.892 20.6946C193.125 21.1835 192.69 22.0142 192.806 22.7784C191.363 23.8416 189.501 24.6628 188.526 24.0742C187.744 23.6043 188.613 18.2691 189.443 15.6062C190.389 15.2407 191.04 14.13 191.04 12.8651C191.04 11.2825 190.036 9.99953 188.796 10Z" fill="black"/>
<path d="M31.2643 12.5505C30.9772 12.5505 30.693 12.6071 30.4278 12.7169C30.1627 12.8268 29.9217 12.9878 29.7187 13.1907C29.5158 13.3937 29.3548 13.6346 29.2449 13.8998C29.1351 14.165 29.0786 14.4492 29.0786 14.7363C29.0786 15.0233 29.1351 15.3075 29.2449 15.5727C29.3548 15.8379 29.5158 16.0788 29.7187 16.2818C29.9217 16.4847 30.1627 16.6457 30.4278 16.7556C30.693 16.8654 30.9772 16.922 31.2643 16.922C31.844 16.922 32.3999 16.6917 32.8098 16.2818C33.2197 15.8719 33.45 15.3159 33.45 14.7363C33.45 14.1566 33.2197 13.6006 32.8098 13.1907C32.3999 12.7808 31.844 12.5505 31.2643 12.5505ZM40.7357 12.5513C40.156 12.5513 39.6001 12.7815 39.1902 13.1914C38.7803 13.6013 38.55 14.1573 38.55 14.737C38.55 15.3167 38.7803 15.8726 39.1902 16.2825C39.6001 16.6924 40.156 16.9227 40.7357 16.9227C41.3154 16.9227 41.8713 16.6924 42.2812 16.2825C42.6911 15.8726 42.9214 15.3167 42.9214 14.737C42.9214 14.1573 42.6911 13.6013 42.2812 13.1914C41.8713 12.7815 41.3154 12.5513 40.7357 12.5513ZM37.0928 17.6513C36.8996 17.6513 36.7143 17.728 36.5777 17.8647C36.441 18.0013 36.3643 18.1866 36.3643 18.3798C36.3643 18.5731 36.441 18.7584 36.5777 18.895C36.7143 19.0317 36.8996 19.1084 37.0928 19.1084C37.2861 19.1084 37.4714 19.0317 37.608 18.895C37.7447 18.7584 37.8214 18.5731 37.8214 18.3798C37.8214 18.1866 37.7447 18.0013 37.608 17.8647C37.4714 17.728 37.2861 17.6513 37.0928 17.6513ZM34.9071 17.6513C34.7139 17.6513 34.5286 17.728 34.392 17.8647C34.2553 18.0013 34.1786 18.1866 34.1786 18.3798C34.1786 18.5731 34.2553 18.7584 34.392 18.895C34.5286 19.0317 34.7139 19.1084 34.9071 19.1084C35.1004 19.1084 35.2857 19.0317 35.4223 18.895C35.5589 18.7584 35.6357 18.5731 35.6357 18.3798C35.6357 18.1866 35.5589 18.0013 35.4223 17.8647C35.2857 17.728 35.1004 17.6513 34.9071 17.6513Z" fill="white"/>
<path d="M36.1238 13.6441C36.3738 12.5888 36.9784 11.6514 37.8365 10.9883C38.6946 10.3253 39.7543 9.97683 40.8384 10.0012H40.8406C43.3804 10.0624 45.4372 12.1352 45.4714 14.6845V14.6859C45.4796 15.3882 45.3315 16.0835 45.0379 16.7215C46.2607 18.2173 46.9286 20.0899 46.9286 22.0219C46.9286 26.6505 43.1779 30.4005 38.55 30.4005H33.45C28.8221 30.4005 25.0714 26.6505 25.0714 22.0219C25.0714 20.0103 25.7854 18.1648 26.9642 16.7179C26.6687 16.0789 26.5198 15.3819 26.5286 14.6779V14.6764C26.5628 12.1337 28.6196 10.0617 31.1594 10.0019H31.1615C32.2448 9.97813 33.3034 10.3269 34.1604 10.99C35.0173 11.6531 35.6207 12.5902 35.8696 13.6448H36.1246L36.1238 13.6441ZM37.4863 14.2757C37.4546 14.5045 37.3413 14.714 37.1672 14.8657C36.9931 15.0175 36.77 15.1011 36.5391 15.1012H35.4536C34.9647 15.1012 34.5683 14.7369 34.5057 14.2735C34.3942 13.48 33.9952 12.755 33.3846 12.236C32.7739 11.7171 31.994 11.4404 31.1929 11.4583C29.4356 11.5006 28.0097 12.9395 27.9857 14.6954C27.9793 15.1886 28.085 15.6769 28.2946 16.1234L28.2968 16.1285L28.299 16.1336C28.4089 16.3756 28.4489 16.6435 28.4145 16.907C28.3801 17.1706 28.2727 17.4193 28.1045 17.625C26.9769 18.9948 26.4187 20.7455 26.5453 22.5151L26.5883 22.5166C26.753 22.5239 26.9868 22.5312 27.2586 22.5297C27.8123 22.5261 28.4862 22.4867 29.0545 22.3585C29.2658 22.3111 29.5354 22.1698 29.9441 21.8995C30.0636 21.8208 30.1976 21.729 30.3426 21.6299C30.6748 21.3984 31.013 21.1756 31.3568 20.9618C32.4832 20.2741 33.9578 19.6081 36 19.6081C38.024 19.6081 39.4418 20.191 40.5164 20.8591C41.0045 21.1622 41.4206 21.4828 41.7688 21.7501L41.8475 21.8113C42.2307 22.1057 42.4959 22.2995 42.7305 22.4102C43.3207 22.6871 43.634 22.7672 43.9589 22.7964C44.1993 22.8182 44.4318 22.8131 44.7705 22.8058C44.9527 22.8022 45.1662 22.7978 45.4284 22.7964C45.5322 21.8756 45.4499 20.9434 45.1864 20.055C44.923 19.1667 44.4837 18.3403 43.8948 17.625C43.7267 17.4205 43.6194 17.1728 43.5851 16.9103C43.5508 16.6478 43.591 16.381 43.701 16.1401L43.7032 16.1343C43.9072 15.6964 44.0201 15.2141 44.0143 14.7019C44.0005 13.8522 43.6593 13.0406 43.0618 12.4363C42.4643 11.832 41.6566 11.4817 40.8071 11.4583C40.0047 11.4401 39.2236 11.7168 38.6116 12.2361C37.9997 12.7553 37.5988 13.4811 37.4863 14.2757ZM45.1035 24.2586L44.9141 24.2623C44.5032 24.2695 44.1454 24.2768 43.83 24.2484C43.2828 24.1996 42.7983 24.0524 42.1105 23.7289C41.7083 23.5395 41.3178 23.2415 40.9608 22.9676L40.8887 22.9122C40.5346 22.6397 40.1725 22.3607 39.7485 22.0977C38.8655 21.5491 37.7107 21.066 36.0007 21.066C34.309 21.066 33.0974 21.6073 32.1174 22.2062C31.7837 22.4102 31.4981 22.6055 31.2169 22.7986C31.0617 22.9049 30.908 23.0106 30.7477 23.1162C30.3361 23.3887 29.8712 23.6685 29.3765 23.7807C28.6567 23.9431 27.8618 23.9839 27.2688 23.9876C27.1158 23.9885 26.9628 23.987 26.8098 23.9832C27.2334 25.4157 28.1089 26.6727 29.3057 27.5666C30.5024 28.4606 31.9562 28.9435 33.45 28.9433H38.55C39.9946 28.9436 41.4031 28.4919 42.5782 27.6515C43.7533 26.8112 44.636 25.6243 45.1028 24.2572L45.1035 24.2586Z" fill="white"/>
</svg>
